<svg width="40" height="40" viewBox="0 0 113 113" fill="none" xmlns="http://www.w3.org/2000/svg">
<path d="M56.9714 109.171C85.6714 109.171 108.971 85.8714 108.971 57.1714C108.971 28.4714 85.6714 5.17139 56.9714 5.17139C28.2714 5.17139 4.97144 28.3714 4.97144 57.1714C4.97144 85.9714 28.2714 109.171 56.9714 109.171Z" fill="white"/>
<path d="M88.8714 28.3713C88.8714 28.3713 88.6714 28.3713 88.6714 28.5713C88.6714 28.5713 88.6714 28.6713 88.6714 28.7713C88.6714 28.8713 88.6714 28.9713 88.6714 28.9713V29.1713C88.8714 29.4713 88.8714 29.8713 88.8714 30.2713C88.8714 30.6713 88.6714 30.9713 88.4714 31.2713C88.4714 31.2713 88.4714 31.2713 88.4714 31.4713V31.8713C88.4714 31.8713 88.4714 31.8713 88.6714 32.0713C88.6714 32.0713 88.6714 32.0713 88.8714 32.0713H89.2714C89.2714 32.0713 89.2714 32.0713 89.4714 31.8713C89.8714 31.3713 90.1714 30.7713 90.1714 30.1713C90.1714 29.5713 90.1714 28.8713 89.8714 28.3713C89.8714 28.3713 89.8714 28.2713 89.6714 28.1713C89.6714 28.1713 89.6714 28.0713 89.4714 28.0713H89.0714V28.2713L88.8714 28.3713Z" fill="#FF6C37"/>
<path d="M63.6714 0.471412C32.7714 -3.52859 4.47141 18.3714 0.471412 49.2714C-3.52859 80.2714 18.3714 108.571 49.2714 112.471C80.2714 116.471 108.571 94.5714 112.471 63.6714C116.471 32.6714 94.5714 4.37141 63.6714 0.471412ZM75.3714 35.6714C74.2714 35.6714 73.2714 36.0714 72.5714 36.8714L51.5714 57.8714L47.0714 53.3714C67.7714 32.7714 71.4714 32.5714 75.2714 35.6714H75.3714ZM52.4714 58.5714L73.3714 37.6714C73.9714 37.1714 74.6714 36.8714 75.4714 36.8714C76.2714 36.8714 76.9714 37.1714 77.5714 37.6714C77.8714 37.9714 78.0714 38.2714 78.2714 38.6714C78.4714 39.0714 78.4714 39.4714 78.4714 39.8714C78.4714 40.2714 78.4714 40.6714 78.1714 41.0714C77.8714 41.4714 77.7714 41.7714 77.4714 41.9714L55.3714 61.3714L52.5714 58.5714H52.4714ZM53.9714 61.8714L48.7714 62.9714H48.4714V62.4714L51.4714 59.4714L53.8714 61.8714H53.9714ZM40.7714 59.6714L46.2714 54.1714L50.3714 58.2714L41.0714 60.2714H40.8714C40.8714 60.2714 40.8714 60.2714 40.6714 60.0714V59.6714H40.7714ZM23.6714 88.1714H23.4714V87.9714C23.3714 87.9714 23.3714 87.9714 23.3714 87.7714C23.3714 87.5714 23.3714 87.7714 23.4714 87.5714L27.9714 83.1714L33.7714 88.9714L23.7714 88.2714L23.6714 88.1714ZM35.0714 82.2714C34.8714 82.2714 34.6714 82.5714 34.5714 82.7714C34.4714 82.9714 34.5714 83.2714 34.5714 83.4714L35.5714 87.5714V87.9714C35.5714 87.9714 35.5714 88.1714 35.3714 88.2714H34.9714C34.8381 88.2714 34.7381 88.2047 34.6714 88.0714L28.8714 82.2714L46.5714 64.5714L55.1714 62.7714L59.2714 66.8714C53.3714 72.0714 45.2714 77.1714 35.2714 82.2714H35.0714ZM59.8714 66.1714L55.8714 62.1714L77.9714 42.7714C78.1714 42.5714 78.3714 42.3714 78.5714 42.1714C77.8714 48.4714 68.9714 57.4714 59.8714 66.1714ZM77.0714 35.7714C75.4714 34.1714 74.6714 32.0714 74.5714 29.8714C74.5714 27.6714 75.3714 25.5714 76.7714 23.8714C78.1714 22.1714 80.3714 21.2714 82.5714 21.0714C84.7714 20.8714 86.9714 21.6714 88.6714 23.0714L81.0714 30.6714C81.0714 30.7714 80.8714 30.8714 80.8714 31.0714C80.8714 31.2714 80.8714 31.3714 81.0714 31.4714L86.9714 37.3714C85.3714 38.1714 83.5714 38.4714 81.7714 38.1714C79.9714 37.8714 78.3714 37.0714 77.0714 35.7714ZM89.2714 35.7714C88.8714 36.1714 88.4714 36.4714 87.9714 36.7714L82.2714 31.0714L89.4714 23.8714C90.9714 25.4714 91.7714 27.6714 91.6714 29.8714C91.6714 32.0714 90.7714 34.1714 89.1714 35.7714H89.2714Z" fill="#FF6C37"/>
</svg>
